Runtime ..........:1:27
IMDb URL .........:http://www.imdb.com/title/tt1911644/
Language .........:English
File Size ........:996MB
Release Date ......2013
File Type .........Single AVI
Genre ......... Horror/Thriller


Video
Format : MPEG-4 Visual
Codec ID : XVID
Duration : 1h 28mn
Bit rate : 1380kbps
Width : 680pixels
Height : 384pixels
Display aspect ratio : 16:9
Frame rate : 29.000fps
Color space : YUV
Chroma subsampling : 4:2:0
Bit depth : 8 bits
Scan type : Progressive
Bits/(Pixel*Frame) : 0.234
Stream size : 892 MiB (86%)
Writing library : XviD 1.2.1 (UTC 2008-12-04)

Audio
ID : 1
Format : AC3
Format/Info : MPEG
Mode extension : CM (complete main)
Codec ID : 2000
Duration : 1h 28mn
Bit rate mode : Constant
Bit rate : 128kbps
Channel(s) : 2channels
Channel positions : Front: L R,
Sampling rate : 48.0 KHz
Bit depth : 16 bits
Stream size : 302 MiB
Alignment : Aligned on interleaves
Interleave, duration : 42 ms (1.00 video frame)
Interleave, preload duration : 512 ms

SYNOPSIS
A veteran 911 operator must confront a killer from the past to
save a young girl's life.
